<?xml version="1.0" standalone="no"?>
<!DOCTYPE svg PUBLIC "-//W3C//DTD SVG 20010904//EN"
 "http://www.w3.org/TR/2001/REC-SVG-20010904/DTD/svg10.dtd">
<svg version="1.0" xmlns="http://www.w3.org/2000/svg"
 width="295.000000pt" height="295.000000pt" viewBox="0 0 295.000000 295.000000"
 preserveAspectRatio="xMidYMid meet">
<metadata>
Created by potrace 1.11, written by Peter Selinger 2001-2013
</metadata>
<g transform="translate(0.000000,295.000000) scale(0.100000,-0.100000)"
fill="#000000" stroke="none">
<path d="M1433 2498 c-12 -15 -92 -262 -312 -963 -226 -721 -234 -746 -242
-738 -4 5 -19 51 -34 103 -25 91 -42 152 -71 250 -26 90 -146 516 -160 565 -7
28 -18 65 -23 83 -5 18 -11 36 -12 40 -1 4 -3 12 -5 17 -1 6 -12 44 -24 85
-11 41 -27 98 -35 125 -58 208 -76 278 -72 289 3 8 34 16 81 20 109 10 134 21
142 62 12 67 26 64 -303 64 -349 0 -341 2 -339 -82 l1 -53 111 -3 c96 -2 113
-5 117 -20 3 -9 52 -179 110 -377 117 -398 425 -1456 436 -1495 7 -24 11 -25
76 -25 l68 0 23 70 c13 39 41 131 64 205 23 74 57 182 75 240 18 58 51 164 73
235 22 72 59 190 82 262 23 73 42 136 42 140 1 5 12 40 25 78 13 39 26 77 28
86 6 30 106 344 117 369 10 23 16 11 59 -122 27 -80 89 -278 139 -440 50 -161
97 -313 105 -338 7 -25 64 -209 125 -410 61 -201 115 -369 119 -373 5 -4 36
-7 71 -5 l63 3 25 90 c14 50 29 92 34 93 4 2 6 7 3 12 -3 4 -1 21 4 36 5 16
19 63 31 104 12 41 24 82 27 90 3 8 7 22 8 30 2 8 14 53 28 100 21 68 128 437
273 940 25 84 49 168 72 245 12 39 27 90 33 115 7 25 16 49 20 54 4 5 48 14
98 22 116 17 131 26 131 81 l0 43 -305 0 c-346 0 -319 7 -320 -85 l0 -50 107
-5 c58 -3 108 -7 111 -10 5 -5 -84 -327 -307 -1108 l-133 -466 -16 45 c-17 43
-29 81 -127 404 -27 88 -56 183 -64 210 -9 28 -32 104 -52 170 -20 66 -45 149
-56 185 -40 133 -49 165 -52 180 -2 8 -6 22 -9 30 -4 8 -39 121 -78 250 -39
129 -76 241 -81 248 -6 7 -33 12 -63 12 -30 0 -57 -5 -62 -12z"/>
</g>
</svg>
